<?xml version="1.0" encoding="iso-8859-1"?>
<!-- Generator: Adobe Illustrator 19.0.0, SVG Export Plug-In . SVG Version: 6.00 Build 0)  -->
<svg version="1.1" id="Layer_1" xmlns="http://www.w3.org/2000/svg" xmlns:xlink="http://www.w3.org/1999/xlink" x="0px" y="0px"
	 viewBox="0 0 400 150" style="enable-background:new 0 0 400 150;" xml:space="preserve">
<path style="fill:#DF4400;" d="M84.225,138.159c-4.122,0-7.643-2.625-8.981-6.293c-7.292,1.381-15.043,1.13-22.121-0.709
	c-1.121,4.033-4.826,7.002-9.209,7.002c-5.269,0-9.556-4.289-9.556-9.558v-7.482c-4.914-4.563-8.207-10.031-9.634-15.98
	c-2.853-0.892-4.931-3.562-4.931-6.705c0-3.144,2.078-5.813,4.931-6.705c2.86-11.935,13.138-21.669,27.341-25.702
	c0.803-0.228,1.663-0.097,2.364,0.354c0.701,0.453,1.173,1.185,1.294,2.01c0.249,1.682,0.856,3.254,1.774,4.617
	c2.714-0.324,5.385-0.476,8.276-0.476c3.24,0,6.551,0.255,9.863,0.759c0.969-1.331,1.629-2.861,1.932-4.489
	c0.152-0.822,0.652-1.538,1.371-1.965c0.716-0.427,1.585-0.522,2.381-0.262c10.954,3.588,19.44,10.678,23.585,19.62
	c5.135,0.43,8.938,6.53,8.938,14.526c0,8.294-4.093,14.551-9.52,14.551h-2.058c-2.237,3.263-5.081,6.17-8.482,8.677v4.651
	C93.783,133.87,89.495,138.159,84.225,138.159z M77.568,125.485c0.637,0,1.263,0.211,1.778,0.609c0.707,0.55,1.121,1.395,1.121,2.29
	c0,2.291,1.686,3.978,3.759,3.978c2.074,0,3.761-1.687,3.761-3.761v-6.15c0-0.96,0.474-1.857,1.268-2.396
	c3.778-2.57,6.796-5.666,8.971-9.2c0.528-0.856,1.462-1.379,2.468-1.379h3.63c1.482,0,3.723-3.492,3.723-8.754
	c0-5.263-2.241-8.753-3.723-8.753h-1.345c-1.198,0-2.271-0.736-2.704-1.854c-2.859-7.393-9.322-13.476-17.955-17.001
	c-0.791,1.954-1.949,3.752-3.424,5.303c-0.67,0.704-1.644,1.022-2.606,0.857c-3.533-0.627-7.069-0.944-10.515-0.944
	c-3.201,0-6.1,0.203-9.125,0.636c-0.965,0.133-1.926-0.213-2.574-0.937c-1.438-1.608-2.541-3.475-3.266-5.506
	c-11.196,4.075-19.228,12.584-20.793,22.283c-0.241,1.5-1.588,2.587-3.12,2.424c-0.043-0.002-0.208-0.023-0.251-0.029
	c-0.505,0.007-1.054,0.557-1.054,1.234c0,0.675,0.549,1.225,1.225,1.225l0.109-0.025c1.508-0.122,2.853,0.937,3.092,2.427
	c0.94,5.824,4.099,11.209,9.138,15.572c0.635,0.553,1.001,1.352,1.001,2.192v8.775c0,2.074,1.686,3.761,3.759,3.761
	c2.073,0,3.759-1.687,3.759-3.761v-1.234c0-0.935,0.452-1.814,1.212-2.357c0.762-0.548,1.743-0.686,2.625-0.385
	c7.951,2.719,17.072,3.061,25.34,0.951C77.087,125.514,77.328,125.485,77.568,125.485z"/>
<path style="fill:#DF4400;" d="M93.054,101.351c-2.742,0-4.973-2.231-4.973-4.973c0-2.741,2.231-4.971,4.973-4.971
	c2.742,0,4.973,2.23,4.973,4.971C98.027,99.121,95.796,101.351,93.054,101.351z M93.054,95.554c-0.454,0-0.824,0.369-0.824,0.824
	c0,0.455,0.37,0.827,0.824,0.827s0.824-0.371,0.824-0.827C93.878,95.923,93.508,95.554,93.054,95.554z"/>
<path id="XMLID_18_" style="fill:#DF4400;" d="M82.689,80.699c-0.261,0-0.527-0.036-0.79-0.111c-9.81-2.775-20.514-3-30.611-0.575
	c-1.558,0.365-3.121-0.585-3.495-2.141c-0.374-1.557,0.584-3.121,2.141-3.495c11.065-2.656,22.783-2.411,33.544,0.634
	c1.541,0.436,2.435,2.038,1.999,3.578C85.115,79.864,83.953,80.699,82.689,80.699z"/>
<path style="fill:#DF4400;" d="M77.823,79.546l-1.533-0.272c-3.533-0.627-7.069-0.944-10.515-0.944c-3.201,0-6.1,0.203-9.125,0.636
	l-1.538,0.221l-1.035-1.157c-2.778-3.107-4.309-7.101-4.309-11.247c0-9.317,7.579-16.896,16.895-16.896
	c9.316,0,16.895,7.579,16.895,16.896c0,4.343-1.655,8.476-4.661,11.634L77.823,79.546z M65.775,72.533
	c3.24,0,6.551,0.255,9.864,0.759c1.377-1.887,2.122-4.152,2.122-6.509c0-6.119-4.978-11.099-11.098-11.099
	c-6.119,0-11.098,4.979-11.098,11.099c0,2.229,0.677,4.393,1.928,6.226C60.209,72.686,62.881,72.533,65.775,72.533z"/>
<path id="XMLID_15_" style="fill:#DF4400;" d="M80.999,95.516c-0.67,0-1.343-0.231-1.89-0.702c-1.435-1.235-2.258-3.026-2.258-4.916
	c0-3.573,2.907-6.481,6.481-6.481c1.731,0,3.358,0.674,4.581,1.897c1.132,1.132,1.132,2.966,0,4.099
	c-1.132,1.132-2.966,1.132-4.099,0c-0.092-0.09-0.249-0.199-0.482-0.199c-0.377,0-0.684,0.307-0.684,0.684
	c0,0.273,0.152,0.445,0.242,0.523c1.214,1.044,1.351,2.875,0.306,4.087C82.624,95.174,81.814,95.516,80.999,95.516z"/>
<path id="XMLID_14_" style="fill:#DF4400;" d="M65.659,132.751c-7.818,0-15.306-1.959-21.657-5.663
	c-1.382-0.809-1.85-2.584-1.043-3.965c0.808-1.386,2.586-1.845,3.964-1.044c5.465,3.191,11.944,4.875,18.736,4.875
	c5.713,0,11.315-1.225,16.201-3.541c1.448-0.686,3.176-0.068,3.861,1.379c0.686,1.445,0.069,3.175-1.377,3.861
	C78.688,131.334,72.226,132.751,65.659,132.751z"/>
<path style="fill:#DF4400;" d="M66.857,45.605c-9.328,0-16.917-7.589-16.917-16.918c0-9.329,7.589-16.918,16.917-16.918
	c9.328,0,16.917,7.589,16.917,16.918C83.774,38.016,76.185,45.605,66.857,45.605z M66.857,17.565c-6.132,0-11.12,4.989-11.12,11.122
	c0,6.132,4.989,11.121,11.12,11.121c6.132,0,11.12-4.989,11.12-11.121C77.978,22.555,72.989,17.565,66.857,17.565z"/>
<g>
	<path id="XMLID_11_" style="fill:#DF4400;" d="M161.372,101.634c-5.583-1.583-10.594-3.31-10.594-6.999
		c0-2.304,1.23-6.169,9.465-6.169c3.894,0,6.296,1.195,11.119,3.769c0.358,0.153,0.848,0.362,1.462,0.362
		c0.879,0,1.624-0.399,2.287-1.291l0.585-0.884c0.645-0.862,0.62-1.698,0.548-2.121c-0.13-0.753-0.563-1.379-1.282-1.858
		c-0.743-0.495-7.465-4.84-14.72-4.84c-11.334,0-16.408,6.545-16.408,13.032c0,8.247,7.845,11.417,16.318,13.616
		c6.477,1.689,10.791,3.553,10.791,7.149c0,3.764-3.81,5.924-10.452,5.924c-6.876,0-11.456-3.849-11.46-3.849l-0.446-0.351
		c-0.539-0.324-1.063-0.482-1.602-0.482c-0.513,0-1.461,0.154-2.183,1.148l-0.623,0.759c-0.548,0.552-0.83,1.318-0.773,2.101
		c0.059,0.824,0.491,1.599,1.136,2.088c2.533,2.024,8.742,5.448,15.952,5.448c10.946,0,17.481-4.9,17.481-13.111
		C177.973,106.161,167.566,103.321,161.372,101.634z"/>
	<path style="fill:#DF4400;" d="M217.084,99.766c0.247-5.641-1.223-10.294-4.25-13.457c-2.935-3.066-7.108-4.62-12.402-4.62
		c-5.926,0-12.624,1.706-17.848,4.529c-0.815,0.408-1.394,1.079-1.63,1.892c-0.237,0.808-0.112,1.677,0.31,2.38l0.365,0.656
		c0.473,0.999,1.426,1.612,2.525,1.612c0.634,0,1.182-0.205,1.689-0.431c5.274-2.741,9.547-3.859,14.752-3.859
		c3.123,0,5.518,0.84,7.117,2.498c1.513,1.569,2.353,3.888,2.504,6.909c-18.636,3.206-30.728,6.419-30.728,17.528
		c0,7.665,5.924,12.619,15.092,12.619c6.431,0,11.349-1.769,15.932-4.037c0.177,2.122,0.636,3.625,2.609,3.625h1.399
		c0.858,0,1.626-0.326,2.163-0.919c0.906-1.001,0.777-2.305,0.725-2.828C216.821,116.81,216.715,108.926,217.084,99.766z
		 M208.816,105.001c0.43-0.086,0.86-0.172,1.293-0.258c-0.118,3.623-0.165,7.912,0.034,11.788
		c-5.509,3.22-10.504,4.791-15.235,4.791c-3.166,0-8.475-0.779-8.475-6.005C186.433,109.729,194.938,107.755,208.816,105.001z"/>
	<path id="XMLID_8_" style="fill:#DF4400;" d="M263.975,84.165l-0.693-0.959c-0.494-0.679-1.236-1.025-2.21-1.025h-1.646
		c-1.363,0-2.273,0.552-2.708,1.644l-16.505,33.231l-16.736-33.25c-0.285-0.688-0.978-1.625-2.615-1.625h-1.814
		c-0.937,0-1.658,0.339-2.14,1.005l-0.679,1.16l0.369,1.126l20.479,40.845c0.729,1.474,1.936,1.785,2.819,1.785h0.659
		c0.693,0,1.97-0.233,2.735-1.78l20.189-40.541L263.975,84.165z"/>
	<path style="fill:#DF4400;" d="M283.313,81.608c-12.574,0-22.424,10.212-22.424,23.249c0,13.036,10.104,23.246,23.002,23.246
		c8.892,0,14.99-5.312,18.536-9.764c0.455-0.566,1.37-2.076,0.043-3.836l-0.709-0.661c-0.759-0.754-1.563-0.913-2.106-0.913
		c-0.516,0-1.506,0.156-2.326,1.184c-3.972,4.918-8.215,7.21-13.358,7.21c-9.576,0-14.284-6.632-15.606-12.255l32.664,0.002
		c3.125,0,4.71-1.529,4.71-4.545C305.739,91.675,295.889,81.608,283.313,81.608z M268.008,102.375
		c0.895-6.168,5.335-13.986,15.307-13.986c10.045,0,14.277,8.312,15.253,13.986H268.008z"/>
	<path id="XMLID_5_" style="fill:#DF4400;" d="M313.216,57.051l-0.992-0.001c-1.864,0-2.978,1.113-2.978,2.978v64.439
		c0,2.172,1.538,3.143,3.059,3.143h0.908c1.782,0,2.978-1.23,2.978-3.059V60.028C316.191,58.219,315.023,57.051,313.216,57.051z"/>
	<path id="XMLID_4_" style="fill:#DF4400;" d="M326.408,82.183h-0.989c-1.864,0-2.978,1.113-2.978,2.978v39.389
		c0,2.104,1.499,3.059,2.894,3.059h1.237c1.356,0,2.814-0.931,2.814-2.975V85.161C329.386,83.352,328.218,82.183,326.408,82.183z"/>
	<path id="XMLID_3_" style="fill:#DF4400;" d="M325.913,57.463c-2.262,0-3.967,1.67-3.967,3.883c0,2.225,1.744,3.967,3.967,3.967
		c2.106,0,3.886-1.817,3.886-3.967C329.798,59.205,328.055,57.463,325.913,57.463z"/>
	<path style="fill:#DF4400;" d="M356.301,81.523c-13.176,0-23.497,10.285-23.497,23.415c0,12.771,10.541,23.165,23.497,23.165
		c12.864,0,23.33-10.394,23.33-23.165C379.631,92.026,369.165,81.523,356.301,81.523z M356.301,121.242
		c-9.852,0-16.469-8.43-16.469-16.304c0-9.128,7.389-16.553,16.469-16.553c8.99,0,16.304,7.425,16.304,16.553
		C372.604,113.774,365.139,121.242,356.301,121.242z"/>
</g>
</svg>
